<svg width="186" height="105" viewBox="0 0 186 105" fill="none" xmlns="http://www.w3.org/2000/svg">
<path fill-rule="evenodd" clip-rule="evenodd" d="M124.124 66.7631C113.486 67.6149 104.907 65.5505 98.1601 61.91C99.2397 59.5237 100.026 57.0383 100.475 54.473C101.945 46.0752 99.7472 37.1521 93.0338 28.5158C89.7684 24.3151 86.7156 21.571 83.896 20.2828C82.4582 19.6258 80.9791 19.3017 79.5254 19.4626C78.0384 19.6272 76.757 20.2812 75.7452 21.2756C73.817 23.1705 72.9974 26.1392 72.8292 29.1913C72.6556 32.3391 73.1445 36.0254 74.2896 39.8563C76.7334 48.0321 82.2987 57.2355 91.5166 63.6844C89.5145 66.8179 86.8722 69.7733 83.6822 72.4662C70.7477 83.3853 49.3333 89.5134 28.1224 85.3847C26.7671 85.1209 25.4546 86.0057 25.1908 87.361C24.927 88.7162 25.8118 90.0288 27.1671 90.2926C49.7768 94.6936 72.7497 88.2388 86.9075 76.2869C90.4386 73.306 93.4535 69.9539 95.7714 66.3115C103.293 70.381 112.808 72.6851 124.523 71.7471C142.745 70.288 156.836 58.328 166.859 44.4736C176.898 30.5962 183.153 14.4315 185.639 3.67283C185.95 2.32758 185.112 0.984987 183.767 0.674056C182.421 0.363123 181.079 1.2016 180.768 2.54684C178.412 12.7416 172.407 28.2738 162.808 41.5429C153.191 54.8349 140.263 65.4708 124.124 66.7631ZM95.5496 53.6107C95.216 55.5158 94.653 57.3922 93.8767 59.2253C85.9464 53.5015 81.1956 45.5015 79.0802 38.4244C78.0652 35.0289 77.686 31.9268 77.8216 29.4665C77.9625 26.9106 78.6292 25.4516 79.2498 24.8417C79.5124 24.5837 79.7711 24.4659 80.0754 24.4323C80.413 24.3949 80.9765 24.446 81.8182 24.8306C83.5577 25.6254 86.0118 27.6295 89.0862 31.5845C95.0525 39.2596 96.7452 46.782 95.5496 53.6107Z" fill="#FFECEC"/>
<path d="M31.1647 71.5186C32.0034 70.4218 31.7942 68.8528 30.6974 68.0141C29.6007 67.1754 28.0316 67.3846 27.1929 68.4814C25.0964 71.223 21.3834 75.5724 17.1317 79.6127C12.8194 83.7106 8.2141 87.2361 4.32446 88.6505C3.60355 88.9126 2.97529 89.168 2.48025 89.4231C2.23478 89.5496 1.95456 89.7101 1.69151 89.9113C1.47563 90.0764 1.01633 90.4565 0.733511 91.0922C0.354819 91.9435 0.428986 92.9557 1.01546 93.7587C1.44949 94.3529 2.01491 94.6208 2.25621 94.7249C2.79201 94.956 3.40717 95.0608 3.85186 95.1237C4.83001 95.2622 6.21525 95.3475 7.70858 95.4378L7.95461 95.4527C9.43666 95.5421 11.1137 95.6434 12.8936 95.8025C16.6835 96.1415 20.7542 96.7297 24.0948 97.9243C27.4977 99.1412 29.5828 100.781 30.3266 102.847C30.7943 104.146 32.2265 104.82 33.5256 104.352C34.8247 103.885 35.4987 102.452 35.031 101.153C33.5248 96.9693 29.6724 94.6088 25.7784 93.2163C21.8222 91.8015 17.2367 91.171 13.339 90.8224C12.6517 90.7609 11.9799 90.7078 11.3315 90.6608C14.5515 88.6182 17.7351 85.9369 20.576 83.2372C25.0409 78.9942 28.9279 74.4437 31.1647 71.5186Z" fill="#FFECEC"/>
</svg>
